PathFileType	4	(X/Y/Z)	C:/Users/Rosti/Documents/GitHub/TechForParalysis/Code/Model/04122019 - Marker Volunteer01/Rosti Data/New Session 103.trc	
DataRate	CameraRate	NumFrames	NumMarkers	Units	OrigDataRate	OrigDataStartFrame	OrigNumFrames	
100.00	100.00	31	14	m	100.00	1	620	
Frame#	Time	C7			PX			T8			IJ			SC			AC			AI			TS			AA			GH			LE			ME			US			RS			
		X1	Y1	Z1	X2	Y2	Z2	X3	Y3	Z3	X4	Y4	Z4	X5	Y5	Z5	X6	Y6	Z6	X7	Y7	Z7	X8	Y8	Z8	X9	Y9	Z9	X10	Y10	Z10	X11	Y11	Z11	X12	Y12	Z12	X13	Y13	Z13	X14	Y14	Z14	

1	0	0.0302316	0.09722	0.166362	-0.0052381	-0.14122	-0.071189	0.0248775	-0.11847	0.230186	0	0	0	0.0252204	0.00733	0.00412	0.1750454	0.03632	0.06708	0.1110632	0.01601	0.198879	0.1074163	-0.10242	0.229526	0.2253154	-0.01037	0.134731	0.2365994	0.00264	0.09431	0.2676194	-0.28723	0.014498	0.1817594	-0.30382	-0.021345	0.2970354	-0.539201	-0.110202	0.3642124	-0.502896	-0.120093
2	0.01	0.0302456	0.09717	0.166351	-0.0052454	-0.14122	-0.071202	0.0248947	-0.1185	0.230172	0	0	0	0.025168	0.0073	0.004113	0.1750609	0.03628	0.067039	0.1110922	0.01596	0.198833	0.1074653	-0.10247	0.229506	0.2253409	-0.01041	0.134704	0.2366089	0.0026	0.094273	0.2675779	-0.28726	0.014473	0.1818419	-0.30387	-0.021264	0.2970219	-0.539265	-0.110214	0.3641999	-0.502968	-0.120021
3	0.02	0.0302587	0.09713	0.166342	-0.0052522	-0.14121	-0.071224	0.0249142	-0.11852	0.230163	0	0	0	0.0251395	0.00729	0.004105	0.1750657	0.03625	0.067008	0.1111097	0.01593	0.198798	0.1075061	-0.10249	0.229487	0.2253557	-0.01043	0.134677	0.2366197	0.00258	0.094244	0.2675457	-0.28727	0.014436	0.1818517	-0.30387	-0.021307	0.2970157	-0.539315	-0.110195	0.3641957	-0.503027	-0.119957
4	0.03	0.0302714	0.0971	0.166335	-0.0052601	-0.14121	-0.07125	0.0249362	-0.11854	0.23016	0	0	0	0.0251274	0.00729	0.004098	0.175065	0.03621	0.06699	0.111118	0.0159	0.198776	0.1075397	-0.10252	0.229469	0.225359	-0.01046	0.134652	0.23663	0.00256	0.094225	0.267532	-0.28727	0.014393	0.181934	-0.30389	-0.021317	0.297009	-0.53937	-0.110149	0.364197	-0.503089	-0.1199
5	0.04	0.030284	0.09708	0.16633	-0.0052701	-0.14119	-0.071275	0.02496	-0.11856	0.230162	0	0	0	0.0251204	0.00728	0.004093	0.1750641	0.03619	0.066981	0.1111219	0.01587	0.198764	0.1075666	-0.10254	0.22945	0.2253561	-0.01048	0.134631	0.2366361	0.00255	0.094212	0.2675391	-0.28725	0.014349	0.1819371	-0.30387	-0.021431	0.2970011	-0.539412	-0.110092	0.3642001	-0.503143	-0.119848
6	0.05	0.0302974	0.09707	0.166327	-0.0052815	-0.14118	-0.071293	0.0249852	-0.11857	0.230169	0	0	0	0.0251122	0.00729	0.004089	0.1750676	0.0362	0.066979	0.1111282	0.01587	0.198761	0.1075879	-0.10255	0.229432	0.2253506	-0.01049	0.134622	0.2366336	0.00255	0.094206	0.2675566	-0.2872	0.014309	0.1819126	-0.30382	-0.02158	0.2969956	-0.539435	-0.110035	0.3642006	-0.503187	-0.119798
7	0.06	0.030312	0.09707	0.166325	-0.0052922	-0.14117	-0.071301	0.0250111	-0.11858	0.23018	0	0	0	0.0251064	0.00729	0.004088	0.1750758	0.03622	0.066978	0.1111409	0.01587	0.198763	0.1076047	-0.10255	0.229415	0.2253518	-0.01049	0.134621	0.2366278	0.00256	0.094205	0.2675778	-0.28714	0.014274	0.1818668	-0.30376	-0.021742	0.2969898	-0.539441	-0.109993	0.3641978	-0.503222	-0.119748
8	0.07	0.0303268	0.09708	0.166323	-0.0053006	-0.14118	-0.071303	0.0250368	-0.11859	0.230194	0	0	0	0.0251081	0.00729	0.004089	0.1750886	0.03624	0.066973	0.1111593	0.01587	0.198766	0.1076176	-0.10256	0.229398	0.2253646	-0.01048	0.13462	0.2366236	0.00257	0.094207	0.2676106	-0.28709	0.014242	0.1818186	-0.30369	-0.021893	0.2969736	-0.539445	-0.109977	0.3641906	-0.503253	-0.119698
9	0.08	0.0303393	0.09708	0.16632	-0.0053086	-0.14119	-0.071304	0.0250608	-0.1186	0.230211	0	0	0	0.0251168	0.00728	0.004093	0.1751026	0.03626	0.066963	0.1111785	0.01587	0.198769	0.1076268	-0.10256	0.229382	0.2253856	-0.01048	0.134611	0.2366266	0.00257	0.094209	0.2676526	-0.28709	0.014219	0.1817886	-0.30364	-0.022004	0.2969366	-0.539466	-0.109987	0.3641826	-0.503284	-0.119648
10	0.09	0.0303466	0.0971	0.166317	-0.0053197	-0.1412	-0.071305	0.0250819	-0.11859	0.23023	0	0	0	0.0251224	0.00728	0.004091	0.1751134	0.03628	0.06695	0.1111928	0.01588	0.198768	0.1076333	-0.10256	0.229368	0.2254054	-0.01046	0.134591	0.2366394	0.00258	0.094205	0.2676884	-0.28709	0.014213	0.1817844	-0.3036	-0.02205	0.2968874	-0.539495	-0.11	0.3641754	-0.503307	-0.119599
11	0.1	0.0303472	0.0971	0.166314	-0.0053353	-0.14121	-0.071307	0.0250996	-0.11858	0.23025	0	0	0	0.0251131	0.00728	0.004085	0.1751153	0.03628	0.066931	0.1111993	0.01589	0.198764	0.1076386	-0.10256	0.229354	0.2254183	-0.01044	0.134566	0.2366553	0.00259	0.094189	0.2677013	-0.28709	0.014226	0.1818063	-0.3036	-0.022031	0.2968473	-0.539526	-0.109992	0.3641743	-0.503329	-0.119555
12	0.11	0.0303428	0.0971	0.166312	-0.0053547	-0.14122	-0.071304	0.0251139	-0.11858	0.230275	0	0	0	0.0250861	0.00728	0.004081	0.1751073	0.03627	0.066915	0.1111992	0.01589	0.198757	0.1076446	-0.10256	0.229342	0.2254193	-0.01042	0.134544	0.2366623	0.0026	0.094162	0.2676893	-0.28708	0.014254	0.1818433	-0.30363	-0.021959	0.2968313	-0.53955	-0.109958	0.3641793	-0.503347	-0.119516
13	0.12	0.0303376	0.09708	0.166306	-0.0053768	-0.14122	-0.0713	0.0251264	-0.11857	0.230299	0	0	0	0.0250513	0.00729	0.004081	0.1750907	0.03626	0.066899	0.1111962	0.01588	0.198747	0.1076536	-0.10257	0.229327	0.2254117	-0.01041	0.134526	0.2366507	0.0026	0.094124	0.2676577	-0.28706	0.014287	0.1818867	-0.30368	-0.021859	0.2968477	-0.539567	-0.109904	0.3641887	-0.503363	-0.119486
14	0.13	0.030336	0.09707	0.166293	-0.0053971	-0.14122	-0.071293	0.0251393	-0.11856	0.230323	0	0	0	0.0250238	0.0073	0.004081	0.1750708	0.03626	0.066884	0.1111949	0.01588	0.198735	0.107667	-0.10257	0.229313	0.2254048	-0.01039	0.134509	0.2366308	0.00261	0.094084	0.2676248	-0.28704	0.014317	0.1819258	-0.30372	-0.021751	0.2968938	-0.539567	-0.109833	0.3641998	-0.503364	-0.11947
15	0.14	0.0303398	0.09707	0.166274	-0.0054105	-0.14122	-0.071283	0.0251545	-0.11854	0.230344	0	0	0	0.0250132	0.0073	0.004079	0.1750555	0.03626	0.066868	0.1111981	0.01589	0.198719	0.1076839	-0.10256	0.229302	0.2253985	-0.01038	0.134489	0.2366185	0.00262	0.094053	0.2676095	-0.28702	0.014342	0.1819565	-0.30375	-0.021652	0.2969515	-0.53956	-0.109758	0.3642125	-0.503359	-0.119466
16	0.15	0.0303481	0.09708	0.16625	-0.0054137	-0.14122	-0.071271	0.0251737	-0.11853	0.230359	0	0	0	0.0250205	0.0073	0.004073	0.1750496	0.03626	0.066848	0.1112065	0.01591	0.1987	0.1077026	-0.10254	0.229297	0.2253966	-0.01036	0.134469	0.2366216	0.00264	0.094036	0.2676246	-0.28702	0.014359	0.1819736	-0.30377	-0.02157	0.2969956	-0.539546	-0.109699	0.3642266	-0.503345	-0.11947
17	0.16	0.0303571	0.09711	0.166225	-0.0054072	-0.14121	-0.071258	0.0251972	-0.11851	0.230364	0	0	0	0.0250391	0.0073	0.004066	0.1750536	0.03629	0.066827	0.1112188	0.01596	0.19868	0.1077211	-0.10249	0.229301	0.2254076	-0.01033	0.13445	0.2366406	0.00268	0.094029	0.2676646	-0.28701	0.014369	0.1819806	-0.30375	-0.021506	0.2970276	-0.539509	-0.109655	0.3642416	-0.503311	-0.119472
18	0.17	0.030363	0.09715	0.166201	-0.0053902	-0.1412	-0.071252	0.0252242	-0.11849	0.230352	0	0	0	0.0250606	0.00731	0.004056	0.1750654	0.03634	0.066803	0.1112328	0.01601	0.198658	0.1077385	-0.10243	0.229309	0.2254314	-0.01028	0.134429	0.2366644	0.00275	0.094024	0.2677134	-0.287	0.014373	0.1819794	-0.30372	-0.021455	0.2970604	-0.539458	-0.109619	0.3642604	-0.50327	-0.119471
19	0.18	0.0303642	0.09719	0.166181	-0.0053617	-0.14118	-0.071253	0.0252538	-0.11848	0.230317	0	0	0	0.0250798	0.00733	0.004039	0.1750794	0.03639	0.06678	0.1112458	0.01607	0.198637	0.1077546	-0.10238	0.229317	0.2254594	-0.01022	0.134409	0.2366814	0.00281	0.09402	0.2677524	-0.28699	0.014378	0.1819754	-0.30369	-0.021402	0.2970814	-0.539408	-0.109593	0.3642844	-0.503228	-0.119462
20	0.19	0.0303628	0.09723	0.166164	-0.0053243	-0.14117	-0.07126	0.0252851	-0.11847	0.230251	0	0	0	0.0250967	0.00735	0.004017	0.1750963	0.03643	0.06676	0.1112566	0.01611	0.19862	0.1077702	-0.10233	0.229322	0.2254773	-0.01017	0.134393	0.2366903	0.00285	0.094017	0.2677763	-0.28696	0.014386	0.1819743	-0.30367	-0.021329	0.2970823	-0.539371	-0.109577	0.3643133	-0.503191	-0.119449
21	0.2	0.0303627	0.09726	0.166148	-0.0052825	-0.14116	-0.071268	0.0253171	-0.11847	0.230149	0	0	0	0.0251155	0.00736	0.003996	0.1751128	0.03646	0.066748	0.1112655	0.01614	0.198607	0.1077865	-0.1023	0.229318	0.2254788	-0.01014	0.134384	0.2367028	0.00288	0.094016	0.2677858	-0.28693	0.014396	0.1819818	-0.30367	-0.021229	0.2970888	-0.539348	-0.109567	0.3643518	-0.503163	-0.11944
22	0.21	0.030367	0.09728	0.166132	-0.0052422	-0.14116	-0.07127	0.0253494	-0.11846	0.230007	0	0	0	0.0251397	0.00737	0.003985	0.1751266	0.03648	0.066747	0.1112738	0.01616	0.1986	0.107805	-0.10228	0.229306	0.2254686	-0.01012	0.134384	0.2367206	0.00291	0.094017	0.2677846	-0.28691	0.014405	0.1820006	-0.30368	-0.021108	0.2971366	-0.539324	-0.109551	0.3643986	-0.503132	-0.119441
23	0.22	0.0303759	0.09729	0.166114	-0.0052115	-0.14116	-0.071266	0.0253811	-0.11848	0.229829	0	0	0	0.0251676	0.00736	0.003985	0.1751373	0.03648	0.066753	0.1112817	0.01616	0.198597	0.1078254	-0.10227	0.229285	0.2254603	-0.01012	0.134393	0.2367453	0.00291	0.094018	0.2677813	-0.2869	0.014414	0.1820303	-0.30371	-0.020986	0.2972193	-0.539311	-0.109533	0.3644573	-0.503114	-0.119453
24	0.23	0.0303872	0.0973	0.166092	-0.0051954	-0.14116	-0.071261	0.0254108	-0.11849	0.22962	0	0	0	0.0251932	0.00736	0.003988	0.1751468	0.03649	0.06676	0.1112873	0.01617	0.198595	0.1078445	-0.10227	0.229259	0.2254628	-0.01012	0.134404	0.2367698	0.00292	0.094017	0.2677908	-0.28689	0.014425	0.1820668	-0.30374	-0.020886	0.2973048	-0.539292	-0.109525	0.3645198	-0.503091	-0.119473
25	0.24	0.0303981	0.09731	0.166067	-0.0051917	-0.14116	-0.071257	0.0254367	-0.11852	0.229392	0	0	0	0.0252109	0.00735	0.003987	0.1751554	0.0365	0.066761	0.1112892	0.01617	0.19859	0.1078577	-0.10226	0.229228	0.2254784	-0.0101	0.134405	0.2367884	0.00293	0.094014	0.2678254	-0.28689	0.014435	0.1821064	-0.30376	-0.020822	0.2973714	-0.539268	-0.109533	0.3645784	-0.503068	-0.119496
26	0.25	0.0304061	0.09734	0.166039	-0.0051916	-0.14116	-0.071254	0.0254564	-0.11855	0.229162	0	0	0	0.0252178	0.00736	0.00398	0.1751663	0.03653	0.066753	0.111289	0.0162	0.19858	0.1078616	-0.10225	0.229198	0.2255023	-0.01006	0.134394	0.2368003	0.00297	0.094012	0.2678843	-0.28686	0.014445	0.1821463	-0.30376	-0.020791	0.2974173	-0.539225	-0.109551	0.3646243	-0.503033	-0.119517
27	0.26	0.0304079	0.09736	0.166013	-0.0051856	-0.14117	-0.071249	0.0254677	-0.11858	0.228949	0	0	0	0.0252166	0.00736	0.003972	0.1751754	0.03656	0.06674	0.1112888	0.01623	0.19857	0.1078557	-0.10224	0.229175	0.2255264	-0.01003	0.134379	0.2368064	0.003	0.094017	0.2679574	-0.28683	0.014457	0.1821784	-0.30377	-0.02078	0.2974464	-0.539179	-0.109564	0.3646574	-0.502999	-0.119532
28	0.27	0.0304009	0.09739	0.165991	-0.0051745	-0.14117	-0.071242	0.0254688	-0.11859	0.228773	0	0	0	0.0252158	0.00736	0.003963	0.1751823	0.0366	0.066731	0.1112869	0.01627	0.198563	0.1078415	-0.10221	0.229161	0.2255403	-0.00999	0.134369	0.2368053	0.00306	0.094034	0.2680263	-0.28677	0.014471	0.1821993	-0.30374	-0.020772	0.2974703	-0.539116	-0.109568	0.3646783	-0.502949	-0.119541
29	0.28	0.0303828	0.09741	0.165971	-0.0051668	-0.14119	-0.071234	0.0254586	-0.11861	0.228645	0	0	0	0.0252212	0.00735	0.003958	0.1751831	0.03663	0.066734	0.1112757	0.0163	0.198561	0.10782	-0.10219	0.229158	0.2255351	-0.00996	0.134373	0.2367971	0.00309	0.094062	0.2680681	-0.28672	0.014486	0.1822111	-0.30372	-0.020755	0.2974971	-0.539063	-0.109562	0.3646921	-0.502909	-0.119546
30	0.29	0.0303535	0.09744	0.165955	-0.0051662	-0.1412	-0.071223	0.0254374	-0.1186	0.228578	0	0	0	0.0252289	0.00734	0.003962	0.175178	0.03666	0.066756	0.1112469	0.01632	0.198568	0.1077911	-0.10216	0.229167	0.225508	-0.00994	0.134399	0.236784	0.00313	0.094102	0.268065	-0.28668	0.014505	0.182222	-0.3037	-0.020715	0.297519	-0.539014	-0.109549	0.364704	-0.502862	-0.119541
31	0.3	0.0303161	0.09745	0.165942	-0.0051707	-0.14119	-0.07121	0.0254071	-0.11859	0.228575	0	0	0	0.0252315	0.00735	0.003974	0.1751624	0.03668	0.066795	0.1111974	0.01634	0.198583	0.1077549	-0.10214	0.229188	0.2254614	-0.00992	0.134442	0.2367654	0.00315	0.094146	0.2680234	-0.28667	0.014525	0.1822384	-0.30367	-0.020651	0.2975124	-0.538983	-0.109536	0.3647164	-0.502822	-0.119525
